<svg xmlns="http://www.w3.org/2000/svg" viewBox="0 0 612 612">
	<path fill="#ABAFC3" d="M55.636 250.364C24.907 250.364 0 275.27 0 306c0 30.73 24.907 55.636 55.636 55.636S111.273 336.73 111.273 306c0-30.73-24.907-55.636-55.637-55.636zm259.637 0c-30.73 0-55.636 24.907-55.636 55.636 0 30.729 24.907 55.636 55.636 55.636 30.729 0 55.636-24.905 55.636-55.636 0-30.73-24.906-55.636-55.636-55.636zm241.091 0c-30.73 0-55.636 24.907-55.636 55.636 0 30.729 24.906 55.636 55.636 55.636C587.093 361.636 612 336.73 612 306c0-30.73-24.907-55.636-55.636-55.636z"/>
</svg>